<?xml version="1.0" encoding="UTF-8" standalone="no"?>
<!DOCTYPE svg PUBLIC "-//W3C//DTD SVG 1.1//EN" "http://www.w3.org/Graphics/SVG/1.1/DTD/svg11.dtd">
<svg width="100%" height="100%" viewBox="0 0 4071 971" version="1.1" xmlns="http://www.w3.org/2000/svg" xmlns:xlink="http://www.w3.org/1999/xlink" xml:space="preserve" xmlns:serif="http://www.serif.com/" style="fill-rule:evenodd;clip-rule:evenodd;stroke-linejoin:round;stroke-miterlimit:2;">
    <g transform="matrix(1,0,0,1,-4506,-3898)">
        <g id="Página-10" serif:id="Página 10" transform="matrix(1,0,0,0.759605,4506,989.357191)">
            <rect x="0" y="3829.15" width="4071" height="1277.067" style="fill:none;"/>
            <g transform="matrix(4.166667,0,0,5.485305,-14,3902.543375)">
                <g transform="matrix(0.813549,0,0,1.23619,-0,-17.28)">
                    <g transform="matrix(1.355182,0,0,0.891859,-76.797102,-32.574754)">
                        <path d="M230.447,222.827C230.447,222.827 222.021,221.333 212.245,215.957C208.515,213.905 192.968,229.831 169.664,221.098C151.831,214.414 142.077,190.497 141.583,190.359C139.291,189.715 138.807,195.771 131.241,209.354C121.089,227.579 101.329,223.324 100.548,223.265C99.99,223.222 97.957,222.745 97.479,222.579C76.758,215.006 79.493,205.202 79.43,144.5C79.345,62.58 79.592,62.501 80.114,62.046C80.847,61.407 80.864,61.699 82.499,61.582L88.5,61.625C104.707,61.619 108.742,60.988 108.842,63.446C108.93,65.633 108.95,186.96 108.888,190.498C108.81,194.948 108.212,195.265 109.359,195.804C111.007,196.578 110.582,194.886 136.052,139.296C148.438,112.264 147.681,110.901 150.522,110.757C152.676,110.648 152.659,110.817 177.488,110.702C181.666,110.683 177.969,113.395 156.93,158.706C155.796,161.148 154.156,161.823 162.848,178.304C177.393,205.885 192.639,197.204 192.604,195.498C192.597,195.125 175.839,165.604 193.782,133.665C203.993,115.489 236.225,97.974 269.415,114.667C277.156,118.56 276.838,111.846 296.514,108.598C320.396,104.655 332.106,116.47 334.309,118.693C336.541,120.946 337.084,123.276 340.755,119.765C356.508,104.698 385.358,103.202 401.187,119.802C403.092,121.799 403.293,123.279 405.369,121.361C431.977,96.785 463.701,109.699 472.167,125.679C485.431,150.719 467.38,196.219 485.53,198.123C490.723,198.667 504.52,196.05 503.182,192.603C499.695,183.619 495.951,178.831 497.307,156.486C501.069,94.529 605.703,90.125 596.493,151.499C594.497,164.796 579.995,183.402 550.752,195.941C544.675,198.546 560.948,201.945 574.41,198.178C585.041,195.204 588.97,189.792 591.043,193.746C599.967,210.765 600.37,211.105 599.323,212.354C596.784,215.385 558.941,234.914 524.691,215.159C517.045,210.75 517.156,216.739 499.484,221.445C487.694,224.586 476.323,223.429 474.334,223.223C473.164,223.102 473.245,223.159 471.469,222.653C438.065,213.132 450.495,182.081 448.043,149.52C446.239,125.558 418.853,133.565 414.555,144.524C409.296,157.933 414.863,219.588 411.411,221.323C409.558,222.254 409.417,221.494 385.497,221.631C382.194,221.65 382.842,219.758 382.863,184.5C382.885,147.965 385.967,131.405 361.557,134.837C343.754,137.339 346.811,157.094 346.791,177.499C346.749,220.341 346.942,221.036 345.483,221.446C344.923,221.603 318.834,221.576 318.504,221.488C317.204,221.138 317.242,220.534 317.239,159.499C317.239,149.735 319.51,129.501 294.602,134.887C287.79,136.361 298.342,139.366 299.396,164.504C300.458,189.822 287.697,203.718 285.31,206.318C272.797,219.944 254.538,222.77 254.538,222.77L252.422,223.086C252.422,223.086 238.166,224.229 232.544,223.097C231.853,222.958 230.447,222.827 230.447,222.827ZM215.173,170.527C216.794,179.932 219.598,200.342 247.523,197.715C282.382,194.437 275.636,120.094 231.595,135.757C229.56,136.481 223.489,139.703 219.858,145.72C213.572,156.136 215.16,168.975 215.173,170.527ZM526.187,164.504C526.323,165.962 526.693,184.193 532.687,180.869C533.306,180.526 578.735,160.785 566.162,138.719C559.074,126.277 527.306,130.78 526.267,159.486C526.207,161.158 526.248,162.832 526.187,164.504Z" style="fill:rgb(15,23,42);"/>
                    </g>
                    <g transform="matrix(1.355182,0,0,0.891859,-76.797102,-32.574754)">
                        <path d="M684.605,215.5C684.584,201.688 684.548,201.703 684.562,200.503C684.604,196.919 733.557,141.15 736.327,137.396C737.854,135.326 732.843,135.444 732.499,135.452C727.935,135.559 687.724,135.435 687.533,135.385C686.243,135.052 686.19,129.066 686.185,128.505C686.067,115.191 685.351,110.828 688.507,110.801C688.763,110.799 770.02,110.794 770.488,110.809C773.827,110.915 772.78,117.786 772.787,125.499C772.795,133.405 773.013,133.721 767.98,139.901C724.241,193.616 717.688,196.703 723.463,196.725C782.202,196.946 784.293,196.435 789.421,195.185C796.837,193.375 786.13,189.974 786.117,164.493C786.081,94.688 875.557,96.358 887.062,130.643C897.958,163.114 865.562,182.653 863.77,183.896C844.098,197.538 835.423,197.254 841.498,198.505C869.376,204.248 880.255,189.501 883.351,192.641C884.052,193.352 892.416,209.921 892.566,210.478C893.843,215.189 865.658,226.219 841.5,223.501C822.833,221.401 815.874,215.687 811.526,213.445C809.164,212.227 800.754,219.32 781.475,221.251C774.707,221.929 686.035,221.64 685.554,221.396C683.624,220.42 684.701,219.802 684.605,215.5ZM815.831,167.481C818.144,182.455 820.382,181.965 821.502,181.508C823.756,180.588 845.995,169.542 853.245,161.279C867.669,144.838 855.246,127.809 835.607,132.939C813.228,138.785 815.855,164.9 815.831,167.481Z" style="fill:rgb(15,23,42);"/>
                    </g>
                    <g transform="matrix(1.355182,0,0,0.891859,-76.797102,-32.574754)">
                        <path d="M644.817,157.538C643.016,208.273 646.687,221.423 642.509,221.571C640.364,221.647 617.304,222.463 615.676,221.231C614.044,219.996 615.061,190.877 614.704,123.499C614.68,119.035 613.776,110.838 616.531,110.772C641.532,110.175 642.575,110.349 642.75,112.443C643.254,118.473 641.589,125.081 644.852,119.97C651.324,109.835 675.287,104.123 676.218,110.525C676.255,110.776 676.33,130.745 676.337,132.504C676.361,139.087 663.719,130.898 650.893,143.861C647.401,147.39 645.112,156.378 644.817,157.538Z" style="fill:rgb(15,23,42);"/>
                    </g>
                    <g transform="matrix(0,-0.836971,-1.27178,0,1164.809985,141.556478)">
                        <path d="M-13.398,-13.398C-20.797,-13.398 -26.796,-7.4 -26.796,0C-26.796,7.399 -20.797,13.398 -13.398,13.398C-5.999,13.398 0,7.399 0,0C0,-7.4 -5.999,-13.398 -13.398,-13.398" style="fill:rgb(15,23,42);fill-rule:nonzero;"/>
                    </g>
                </g>
            </g>
        </g>
    </g>
</svg>
