<?xml version="1.0" encoding="UTF-8" standalone="no"?>
<!DOCTYPE svg PUBLIC "-//W3C//DTD SVG 1.1//EN" "http://www.w3.org/Graphics/SVG/1.1/DTD/svg11.dtd">
<svg width="100%" height="100%" viewBox="0 0 48 48" version="1.1" xmlns="http://www.w3.org/2000/svg" xmlns:xlink="http://www.w3.org/1999/xlink" xml:space="preserve" xmlns:serif="http://www.serif.com/" style="fill-rule:evenodd;clip-rule:evenodd;stroke-linejoin:round;stroke-miterlimit:2;">
    <g transform="matrix(1,0,0,1,-5164.5,-5214)">
        <g id="Página-4" serif:id="Página 4" transform="matrix(0.096,0,0,0.096,5164.5,5214)">
            <rect x="0" y="0" width="500" height="500" style="fill:none;"/>
            <g transform="matrix(1.00168,0,0,0.903768,1.316145,13.880447)">
                <g transform="matrix(0.171027,0,0,0.820724,47.224326,-1428.609898)">
                    <path d="M2574,1781.514L2574,2336.486C2574,2361.606 2485.699,2382 2376.938,2382L-25.938,2382C-134.699,2382 -223,2361.606 -223,2336.486L-223,1781.514C-223,1756.394 -134.699,1736 -25.938,1736L2376.938,1736C2485.699,1736 2574,1756.394 2574,1781.514Z" style="fill:rgb(15,23,42);"/>
                </g>
                <g transform="matrix(1.597184,0,0,1.868968,68.99138,-143.436565)">
                    <g transform="matrix(1.102507,0,0,1.102507,-54.678218,59.271416)">
                        <path d="M208.775,216.479C202.198,219.152 188.452,228.139 169.664,221.098C151.831,214.414 142.077,190.497 141.583,190.359C139.291,189.715 138.807,195.771 131.241,209.354C121.089,227.579 101.329,223.324 100.548,223.265C99.99,223.222 97.957,222.745 97.479,222.579C76.758,215.006 79.493,205.202 79.43,144.5C79.345,62.58 79.592,62.501 80.114,62.046C80.847,61.407 80.864,61.699 82.499,61.582L88.5,61.625C104.707,61.619 108.742,60.988 108.842,63.446C108.93,65.633 108.95,186.96 108.888,190.498C108.81,194.948 108.212,195.265 109.359,195.804C111.007,196.578 110.582,194.886 136.052,139.296C148.438,112.264 147.681,110.901 150.522,110.757C152.676,110.648 152.659,110.817 177.488,110.702C181.666,110.683 177.969,113.395 156.93,158.706C155.796,161.148 154.156,161.823 162.848,178.304C175.113,201.562 189.618,198.817 193.297,196.43C191.212,212.585 201.512,215.172 208.775,216.479Z" style="fill:rgb(241,245,249);"/>
                    </g>
                    <g transform="matrix(0,-1.034655,-1.034655,0,177.830186,265.6507)">
                        <path d="M-13.398,-13.398C-20.797,-13.398 -26.796,-7.4 -26.796,0C-26.796,7.399 -20.797,13.398 -13.398,13.398C-5.999,13.398 0,7.399 0,0C0,-7.4 -5.999,-13.398 -13.398,-13.398" style="fill:rgb(241,245,249);fill-rule:nonzero;"/>
                    </g>
                </g>
            </g>
            <g id="Layer-1" serif:id="Layer 1">
            </g>
        </g>
    </g>
</svg>
